<svg width="25" height="25" viewBox="0 0 25 25" fill="none" xmlns="http://www.w3.org/2000/svg">
<g filter="url(#filter0_i_9_4)">
<path d="M12.5 3.125C7.34375 3.125 3.125 7.34375 3.125 12.5C3.125 17.6562 7.34375 21.875 12.5 21.875C17.6562 21.875 21.875 17.6562 21.875 12.5C21.875 7.34375 17.6562 3.125 12.5 3.125ZM12.5 5.20833C14.1146 5.20833 15.625 5.78125 16.875 6.66667L6.66667 16.875C5.78125 15.625 5.20833 14.1146 5.20833 12.5C5.20833 8.48958 8.48958 5.20833 12.5 5.20833ZM12.5 19.7917C10.8854 19.7917 9.375 19.2187 8.125 18.3333L18.3333 8.125C19.2187 9.375 19.7917 10.8854 19.7917 12.5C19.7917 16.5104 16.5104 19.7917 12.5 19.7917Z" fill="#D50000"/>
</g>
<defs>
<filter id="filter0_i_9_4" x="0" y="0" width="27" height="27" filterUnits="userSpaceOnUse" color-interpolation-filters="sRGB">
<feFlood flood-opacity="0" result="BackgroundImageFix"/>
<feBlend mode="normal" in="SourceGraphic" in2="BackgroundImageFix" result="shape"/>
<feColorMatrix in="SourceAlpha" type="matrix" values="0 0 0 0 0 0 0 0 0 0 0 0 0 0 0 0 0 0 127 0" result="hardAlpha"/>
<feOffset dx="2" dy="2"/>
<feGaussianBlur stdDeviation="1"/>
<feComposite in2="hardAlpha" operator="arithmetic" k2="-1" k3="1"/>
<feColorMatrix type="matrix" values="0 0 0 0 0.992448 0 0 0 0 0.562387 0 0 0 0 0.562387 0 0 0 1 0"/>
<feBlend mode="luminosity" in2="shape" result="effect1_innerShadow_9_4"/>
</filter>
</defs>
</svg>
